<?xml version="1.0" standalone="no"?>
<!DOCTYPE svg PUBLIC "-//W3C//DTD SVG 20010904//EN"
 "http://www.w3.org/TR/2001/REC-SVG-20010904/DTD/svg10.dtd">
<svg version="1.0" xmlns="http://www.w3.org/2000/svg"
 width="861.000000pt" height="195.000000pt" viewBox="0 0 861.000000 195.000000"
 preserveAspectRatio="xMidYMid meet">

<g transform="translate(0.000000,195.000000) scale(0.100000,-0.100000)"
fill="#000000" stroke="none">
<path d="M0 975 l0 -975 4305 0 4305 0 0 975 0 975 -4305 0 -4305 0 0 -975z
m1138 755 c255 -72 469 -289 537 -545 41 -155 27 -349 -36 -502 -92 -220 -309
-403 -538 -452 -87 -19 -295 -14 -374 8 -224 65 -414 226 -504 429 -89 202
-85 455 11 657 100 212 325 382 564 425 76 14 258 4 340 -20z m4412 -271 l0
-80 26 20 c18 14 41 21 68 21 79 -1 96 -35 96 -191 l0 -109 -25 0 -25 0 0 112
c0 123 -10 148 -59 148 -61 -1 -81 -43 -81 -164 0 -96 0 -96 -25 -96 l-25 0 0
210 0 210 25 0 c25 0 25 -1 25 -81z m947 65 c8 -21 -19 -46 -40 -38 -17 6 -23
35 -10 47 12 13 44 7 50 -9z m-1074 -14 c4 0 7 -12 7 -26 0 -21 -3 -25 -17
-18 -62 27 -143 11 -188 -36 -23 -25 -30 -41 -33 -90 -7 -97 26 -148 109 -170
37 -10 70 -6 122 15 13 6 17 2 17 -18 0 -63 -173 -63 -243 1 -74 67 -78 216
-8 296 38 43 118 67 186 54 22 -4 43 -7 48 -8z m1900 -94 c18 -4 27 -13 27
-25 0 -18 -6 -19 -53 -14 -42 4 -55 2 -67 -12 -19 -23 -5 -44 52 -75 67 -37
78 -49 78 -86 0 -61 -52 -92 -135 -80 -38 6 -45 11 -45 30 0 22 2 23 38 13 21
-6 50 -7 65 -3 22 5 27 12 27 36 0 25 -6 32 -47 50 -67 29 -83 47 -83 90 0 52
53 95 105 84 6 -1 22 -5 38 -8z m-1341 -7 c34 -18 48 -70 48 -184 l0 -105 -25
0 c-15 0 -25 6 -25 14 0 13 -4 13 -27 0 -36 -18 -67 -18 -103 1 -49 26 -55
104 -9 137 14 11 50 22 83 25 l58 6 -6 31 c-4 16 -12 34 -19 38 -17 11 -85 10
-108 -2 -16 -9 -19 -7 -19 14 0 13 6 27 13 29 23 10 118 7 139 -4z m178 -5 c0
-14 2 -14 22 0 29 21 102 20 134 0 37 -25 54 -66 54 -132 0 -116 -89 -184
-179 -137 -27 14 -29 13 -35 -8 -3 -12 -6 -43 -6 -69 0 -41 -3 -48 -20 -48
-19 0 -20 7 -20 205 l0 205 25 0 c16 0 25 -6 25 -16z m330 -135 c0 -150 0
-150 -22 -147 -23 3 -23 6 -26 151 l-3 147 26 0 25 0 0 -151z m130 130 l0 -20
29 20 c42 30 105 28 136 -4 24 -23 25 -30 25 -150 0 -118 -1 -125 -20 -125
-19 0 -20 7 -20 103 0 117 -12 150 -53 155 -67 8 -97 -48 -97 -180 0 -71 -2
-78 -20 -78 -19 0 -20 7 -20 150 0 143 1 150 20 150 14 0 20 -7 20 -21z m441
8 c32 -24 39 -56 39 -171 0 -109 -1 -116 -20 -116 -11 0 -20 7 -20 15 0 13 -5
13 -34 -1 -90 -43 -185 47 -131 123 17 25 71 43 128 43 36 0 37 1 31 28 -4 15
-11 33 -17 40 -11 14 -75 16 -111 2 -23 -9 -26 -7 -26 15 0 14 7 25 18 28 36
10 128 6 143 -6z m-3051 -707 c0 -124 -3 -180 -11 -180 -6 0 -13 9 -16 20 -5
20 -5 20 -30 0 -51 -40 -127 -20 -158 40 -30 58 -12 140 37 174 29 21 92 20
123 0 l25 -16 0 64 c0 63 4 78 22 78 4 0 8 -81 8 -180z m695 0 c0 -130 -3
-174 -12 -178 -8 -2 -13 5 -13 18 l0 21 -26 -20 c-43 -34 -99 -28 -140 13 -33
33 -39 54 -34 116 3 35 26 77 49 90 33 17 96 12 125 -11 l26 -20 0 76 c0 57 3
76 13 73 9 -4 12 -48 12 -178z m-2613 65 c35 -52 65 -95 68 -95 3 0 32 41 64
91 32 49 63 92 69 96 20 12 27 -28 27 -167 0 -142 -7 -179 -29 -166 -7 5 -11
53 -11 139 l0 132 -55 -82 c-30 -45 -59 -84 -64 -87 -5 -3 -35 35 -68 85 l-58
91 -3 -141 c-4 -205 -22 -181 -22 29 0 106 4 170 10 170 5 0 38 -43 72 -95z
m1188 59 c0 -17 -26 -19 -36 -3 -7 12 15 31 28 23 4 -3 8 -12 8 -20z m1840
-18 c0 -32 3 -35 33 -38 17 -2 32 -7 32 -13 0 -5 -15 -11 -32 -13 l-33 -3 0
-79 c0 -91 5 -110 31 -110 10 0 19 -5 19 -10 0 -17 -27 -22 -49 -10 -19 10
-21 20 -21 110 0 100 0 100 -25 100 -16 0 -25 6 -25 15 0 9 9 15 25 15 22 0
25 4 25 35 0 19 5 35 10 35 6 0 10 -15 10 -34z m-2556 -57 l26 -20 0 21 c0 13
5 20 13 18 9 -4 12 -37 12 -123 0 -86 -3 -119 -12 -122 -8 -3 -13 4 -13 17 l0
21 -26 -20 c-29 -23 -92 -28 -126 -10 -11 6 -29 31 -40 56 -25 57 -17 111 22
153 23 25 36 30 73 30 30 0 53 -7 71 -21z m184 4 c11 10 35 17 60 17 74 0 96
-42 90 -174 -2 -44 -8 -71 -15 -74 -10 -3 -13 19 -13 88 0 83 -2 93 -25 115
-31 32 -56 31 -94 -1 -30 -25 -31 -28 -31 -116 0 -67 -3 -89 -12 -86 -14 5
-24 207 -13 237 6 14 8 13 21 -3 13 -18 15 -18 32 -3z m396 -10 c28 -28 42
-64 32 -88 -4 -12 -25 -15 -96 -15 -80 0 -90 -2 -90 -18 0 -29 28 -60 65 -72
31 -10 40 -9 71 9 42 25 44 25 44 6 0 -21 -53 -45 -99 -45 -31 0 -49 7 -73 29
-27 24 -32 36 -36 89 -4 60 -3 63 31 97 30 30 42 35 80 35 35 0 50 -6 71 -27z
m134 -120 c2 -129 1 -142 -18 -166 -12 -15 -30 -27 -41 -27 -26 0 -24 15 6 34
25 16 25 18 25 162 0 112 3 145 13 142 9 -3 13 -44 15 -145z m270 131 c31 -21
52 -66 52 -109 0 -73 -47 -125 -112 -125 -54 0 -85 15 -108 52 -38 62 -14 165
43 188 35 14 101 11 125 -6z m712 -13 c35 -34 49 -79 29 -92 -8 -5 -53 -9
-101 -9 -99 0 -106 -7 -63 -58 34 -41 68 -48 118 -23 50 25 62 18 24 -15 -54
-46 -150 -25 -181 40 -20 43 -20 79 0 122 22 47 50 64 102 64 35 0 49 -6 72
-29z m686 8 l18 -20 8 21 c4 12 12 18 18 15 14 -9 13 -232 -1 -240 -6 -4 -13
2 -16 14 l-5 21 -25 -20 c-33 -26 -93 -26 -125 0 -60 46 -64 153 -9 202 40 36
108 39 137 7z m473 -4 c91 -77 42 -225 -76 -225 -87 0 -146 96 -109 179 33 72
126 95 185 46z m252 6 c33 -27 16 -38 -24 -16 -38 20 -84 15 -94 -12 -10 -25
10 -45 59 -62 62 -22 78 -37 78 -77 0 -42 -30 -64 -86 -64 -40 0 -94 29 -94
51 0 14 26 11 40 -6 7 -8 28 -17 47 -21 28 -5 39 -2 56 15 29 29 15 51 -49 74
-80 29 -104 72 -64 115 27 29 98 30 131 3z"/>
<path d="M752 1660 c-192 -50 -357 -184 -445 -360 -62 -124 -81 -212 -74 -350
14 -265 154 -476 397 -596 92 -45 179 -64 301 -64 211 0 405 91 540 255 85
103 159 301 159 428 0 88 -30 219 -69 301 -94 199 -254 334 -457 386 -102 26
-252 26 -352 0z"/>
<path d="M5870 1240 c-24 -24 -24 -29 -4 -58 33 -48 114 -14 114 48 0 29 -2
30 -45 30 -32 0 -51 -6 -65 -20z"/>
<path d="M6185 1355 c-21 -20 -25 -34 -25 -83 0 -62 18 -94 60 -107 31 -10 77
13 89 43 34 88 0 172 -69 172 -19 0 -40 -9 -55 -25z"/>
<path d="M6952 1244 c-26 -18 -28 -46 -6 -68 36 -36 99 -7 110 52 l7 32 -45 0
c-24 0 -54 -7 -66 -16z"/>
<path d="M3839 721 c-48 -48 -37 -136 20 -166 62 -32 121 13 121 92 0 36 -6
50 -29 74 -38 38 -74 38 -112 0z"/>
<path d="M4553 738 c-51 -25 -65 -116 -24 -162 55 -63 151 -19 151 69 0 38
-27 84 -56 95 -31 12 -43 12 -71 -2z"/>
<path d="M2461 736 c-49 -27 -63 -83 -35 -141 36 -77 138 -59 159 27 10 41
-12 96 -45 113 -35 18 -48 18 -79 1z"/>
<path d="M3041 739 c-27 -10 -50 -37 -51 -56 0 -9 22 -13 80 -13 44 0 80 4 80
9 0 23 -15 43 -41 56 -32 17 -35 17 -68 4z"/>
<path d="M3444 740 c-33 -13 -54 -50 -54 -93 0 -51 15 -76 56 -93 29 -12 39
-12 68 0 42 17 56 42 56 95 0 69 -66 117 -126 91z"/>
<path d="M4153 740 c-12 -5 -29 -23 -38 -39 l-16 -31 86 0 c47 0 85 4 85 9 0
19 -45 60 -70 65 -14 3 -35 1 -47 -4z"/>
<path d="M4829 721 c-51 -52 -35 -148 29 -172 87 -33 152 103 83 172 -38 38
-74 38 -112 0z"/>
<path d="M5299 735 c-83 -45 -48 -189 46 -189 66 0 108 69 85 139 -19 56 -78
79 -131 50z"/>
</g>
</svg>
